<svg width="45" height="43" viewBox="0 0 45 43" fill="none" xmlns="http://www.w3.org/2000/svg">
<path d="M20.5979 3.8541C21.1966 2.01148 23.8034 2.01148 24.4021 3.8541L27.7761 14.2381C28.0438 15.0621 28.8117 15.6201 29.6782 15.6201L40.5966 15.6201C42.534 15.6201 43.3396 18.0993 41.7721 19.2381L32.939 25.6558C32.238 26.1651 31.9447 27.0678 32.2124 27.8918L35.5864 38.2758C36.1851 40.1185 34.0762 41.6507 32.5087 40.5119L23.6756 34.0942C22.9746 33.5849 22.0254 33.5849 21.3244 34.0942L12.4913 40.5119C10.9238 41.6507 8.81489 40.1185 9.41359 38.2758L12.7876 27.8918C13.0553 27.0678 12.762 26.1651 12.061 25.6558L3.22785 19.2381C1.66043 18.0993 2.46598 15.6201 4.40342 15.6201L15.3218 15.6201C16.1883 15.6201 16.9562 15.0621 17.2239 14.2381L20.5979 3.8541Z" stroke="#FFCF4E" stroke-width="3"/>
</svg>
